<mxfile host="app.diagrams.net" modified="2023-05-29T08:55:10.454Z" agent="Mozilla/5.0 (Macintosh; Intel Mac OS X 10_15_7) AppleWebKit/605.1.15 (KHTML, like Gecko) Version/16.3 Safari/605.1.15" etag="WvXvYznZchx72arxBzDv" version="21.3.4" type="github">
  <diagram name="Page-1" id="OzqNdbhDN5wW7r0jXmfs">
    <mxGraphModel dx="794" dy="501" grid="1" gridSize="10" guides="1" tooltips="1" connect="1" arrows="1" fold="1" page="1" pageScale="1" pageWidth="827" pageHeight="1169" math="0" shadow="0">
      <root>
        <mxCell id="0" />
        <mxCell id="1" parent="0" />
        <mxCell id="OH293jGCViKTZaS4HmtR-3" value="" style="edgeStyle=orthogonalEdgeStyle;rounded=0;orthogonalLoop=1;jettySize=auto;html=1;" edge="1" parent="1" source="OH293jGCViKTZaS4HmtR-1" target="OH293jGCViKTZaS4HmtR-2">
          <mxGeometry relative="1" as="geometry" />
        </mxCell>
        <mxCell id="OH293jGCViKTZaS4HmtR-1" value="Controller" style="rounded=1;whiteSpace=wrap;html=1;" vertex="1" parent="1">
          <mxGeometry x="330" y="80" width="120" height="60" as="geometry" />
        </mxCell>
        <mxCell id="OH293jGCViKTZaS4HmtR-5" value="" style="edgeStyle=orthogonalEdgeStyle;rounded=0;orthogonalLoop=1;jettySize=auto;html=1;" edge="1" parent="1" source="OH293jGCViKTZaS4HmtR-2" target="OH293jGCViKTZaS4HmtR-4">
          <mxGeometry relative="1" as="geometry" />
        </mxCell>
        <mxCell id="OH293jGCViKTZaS4HmtR-2" value="service" style="whiteSpace=wrap;html=1;rounded=1;" vertex="1" parent="1">
          <mxGeometry x="330" y="220" width="120" height="60" as="geometry" />
        </mxCell>
        <mxCell id="OH293jGCViKTZaS4HmtR-7" style="edgeStyle=orthogonalEdgeStyle;rounded=0;orthogonalLoop=1;jettySize=auto;html=1;entryX=0.5;entryY=0;entryDx=0;entryDy=0;entryPerimeter=0;" edge="1" parent="1" source="OH293jGCViKTZaS4HmtR-4" target="OH293jGCViKTZaS4HmtR-6">
          <mxGeometry relative="1" as="geometry" />
        </mxCell>
        <mxCell id="OH293jGCViKTZaS4HmtR-4" value="repo" style="whiteSpace=wrap;html=1;rounded=1;" vertex="1" parent="1">
          <mxGeometry x="330" y="360" width="120" height="60" as="geometry" />
        </mxCell>
        <mxCell id="OH293jGCViKTZaS4HmtR-6" value="DB" style="shape=cylinder3;whiteSpace=wrap;html=1;boundedLbl=1;backgroundOutline=1;size=15;" vertex="1" parent="1">
          <mxGeometry x="354" y="505" width="60" height="80" as="geometry" />
        </mxCell>
        <mxCell id="OH293jGCViKTZaS4HmtR-8" value="all these req fields as an arg." style="text;html=1;strokeColor=#6c8ebf;fillColor=#dae8fc;align=center;verticalAlign=middle;whiteSpace=wrap;rounded=0;" vertex="1" parent="1">
          <mxGeometry x="440" y="170" width="190" height="30" as="geometry" />
        </mxCell>
        <mxCell id="OH293jGCViKTZaS4HmtR-9" value="AccountName,&lt;br&gt;type,&lt;br&gt;customerName,&amp;nbsp;&lt;br&gt;PANCard,&lt;br&gt;addressProof.&lt;br&gt;AADHAR Card&lt;br&gt;(linked)" style="rounded=1;whiteSpace=wrap;html=1;" vertex="1" parent="1">
          <mxGeometry x="21" y="155" width="200" height="205" as="geometry" />
        </mxCell>
        <mxCell id="OH293jGCViKTZaS4HmtR-12" value="" style="edgeStyle=orthogonalEdgeStyle;rounded=0;orthogonalLoop=1;jettySize=auto;html=1;" edge="1" parent="1" source="OH293jGCViKTZaS4HmtR-10" target="OH293jGCViKTZaS4HmtR-11">
          <mxGeometry relative="1" as="geometry" />
        </mxCell>
        <mxCell id="OH293jGCViKTZaS4HmtR-10" value="all these req fields as an Object" style="text;html=1;strokeColor=#6c8ebf;fillColor=#dae8fc;align=center;verticalAlign=middle;whiteSpace=wrap;rounded=0;" vertex="1" parent="1">
          <mxGeometry x="450" y="270" width="190" height="30" as="geometry" />
        </mxCell>
        <mxCell id="OH293jGCViKTZaS4HmtR-11" value="class" style="whiteSpace=wrap;html=1;fillColor=#dae8fc;strokeColor=#6c8ebf;gradientColor=none;rounded=0;" vertex="1" parent="1">
          <mxGeometry x="760" y="255" width="115" height="60" as="geometry" />
        </mxCell>
        <mxCell id="OH293jGCViKTZaS4HmtR-13" value="9975477764" style="ellipse;whiteSpace=wrap;html=1;aspect=fixed;fillColor=#fff2cc;strokeColor=#d6b656;fontSize=17;" vertex="1" parent="1">
          <mxGeometry x="540" y="370" width="110" height="110" as="geometry" />
        </mxCell>
      </root>
    </mxGraphModel>
  </diagram>
</mxfile>
